# xmcd
#
# Track frame offsets:
#       150
#       13020
#       21597
#       32397
#       41867
#       52920
#       65312
#       76935
#       89387
#
# Disc length: 1339 seconds
#
# Revision: 1
# Processed by: cddbd v1.5.2PL0 Copyright (c) Steve Scherf et al.
# Submitted via: FreeDbEdit v0.1
#
DISCID=67053909
DTITLE=Faron Young - It's Four in the Morning
DYEAR=1900
DGENRE=
TTITLE0=It's Four in the Morning
TTITLE1=I Fall to Pieces
TTITLE2=Hello Out There
TTITLE3=Invisible Tears
TTITLE4=This Is the Part Where I Cry
TTITLE5=Sweet Dreams
TTITLE6=Is It Really Over
TTITLE7=Tip of My Fingers
TTITLE8=Crying Time
EXTD=
EXTT0=
EXTT1=
EXTT2=
EXTT3=
EXTT4=
EXTT5=
EXTT6=
EXTT7=
EXTT8=
PLAYORDER=
